<svg width="51" height="38" viewBox="0 0 51 38" fill="none" xmlns="http://www.w3.org/2000/svg">
<path d="M45.8332 0.316406C48.3623 0.316406 50.5023 2.45645 50.5023 4.9856V33.0007C50.5023 35.6272 48.3623 37.6699 45.8332 37.6699H5.36685C2.74043 37.6699 0.697657 35.6272 0.697657 33.0007V4.9856C0.697657 2.45645 2.74043 0.316406 5.36685 0.316406H45.8332ZM45.8332 4.9856H5.36685V8.97386C7.50689 10.8221 11.0088 13.5458 18.4017 19.3823C20.0553 20.6468 23.2654 23.7596 25.6 23.6624C27.8373 23.7596 31.0474 20.6468 32.7011 19.3823C40.0939 13.5458 43.5958 10.8221 45.8332 8.97386V4.9856ZM5.36685 33.0007H45.8332V15.0049C43.5958 16.7558 40.3858 19.285 35.6193 23.0787C33.382 24.7324 29.6855 28.4288 25.6 28.3315C21.4172 28.4288 17.6235 24.7324 15.4834 23.0787C10.717 19.285 7.50689 16.7558 5.36685 15.0049V33.0007Z" fill="#AD8F47"/>
</svg>
