<svg width="35" height="35" viewBox="0 0 33 36" fill="none" xmlns="http://www.w3.org/2000/svg">
<path d="M31.9555 19.7241C32.2289 21.2964 32.0238 22.8003 31.3402 24.0308C31.5453 25.6714 31.0668 27.3804 30.1098 28.6108C30.0414 32.439 27.7172 35.105 22.4535 35.105C21.975 35.105 21.4281 35.105 20.8813 35.105C13.9086 35.105 11.7895 32.5073 8.71328 32.439C8.5082 33.3276 7.61953 34.0112 6.6625 34.0112H2.2875C1.05703 34.0112 0.1 33.0542 0.1 31.8237V15.4175C0.1 14.2554 1.05703 13.23 2.2875 13.23H8.98672C10.2855 12.1362 12.1313 9.12842 13.7035 7.55615C14.6605 6.59912 14.3871 0.10498 18.6254 0.10498C22.5219 0.10498 25.1195 2.29248 25.1195 7.28271C25.1195 8.58154 24.8461 9.60693 24.5043 10.4956H27.0336C30.3148 10.4956 32.9125 13.2983 32.9125 16.3062C32.9125 17.605 32.5707 18.6987 31.9555 19.7241ZM27.7172 23.4155C29.2211 22.0483 29.016 19.9292 28.059 18.9038C28.7426 18.9038 29.6313 17.605 29.6313 16.3745C29.5629 15.0757 28.4691 13.7769 27.0336 13.7769H19.9242C19.9242 11.1792 21.8383 9.94873 21.8383 7.28271C21.8383 5.64209 21.8383 3.38623 18.6254 3.38623C17.3266 4.68506 17.9418 7.96631 16.0277 9.88037C14.182 11.7261 11.516 16.5112 9.53359 16.5112H8.85V29.2944C12.473 29.2944 15.6859 31.8237 20.5395 31.8237H23.1371C25.5297 31.8237 27.307 30.6616 26.7602 27.3804C27.7855 26.7651 28.6059 24.8511 27.7172 23.4155ZM6.11563 29.6362C6.11563 28.7476 5.36367 27.9956 4.475 27.9956C3.51797 27.9956 2.83438 28.7476 2.83438 29.6362C2.83438 30.5933 3.51797 31.2769 4.475 31.2769C5.36367 31.2769 6.11563 30.5933 6.11563 29.6362Z" fill="#AD8F47"/>
</svg>
