<svg width="49" height="50" viewBox="0 0 49 50" fill="none" xmlns="http://www.w3.org/2000/svg">
<path d="M24.6741 0.701172C38.053 0.701172 48.8929 11.541 48.8929 24.9199C48.8929 38.2988 38.053 49.1387 24.6741 49.1387C11.2952 49.1387 0.455374 38.2988 0.455374 24.9199C0.455374 11.541 11.2952 0.701172 24.6741 0.701172ZM36.4905 17.3027C36.8812 15.7402 35.9046 15.0566 34.8304 15.4473L11.4905 24.4316C9.92803 25.0176 9.92803 25.9941 11.1976 26.3848L17.1546 28.2402L31.0218 19.4512C31.7054 19.0605 32.2913 19.3535 31.803 19.7441L20.5726 29.9004L20.1819 36.0527C20.7679 36.0527 21.0608 35.7598 21.3538 35.4668L24.2835 32.6348L30.3382 37.127C31.5101 37.7129 32.2913 37.4199 32.5843 36.0527L36.4905 17.3027Z" fill="#AD8F47"/>
</svg>
